<?xml version="1.0" encoding="UTF-8" standalone="no"?>
<svg
   xmlns:dc="http://purl.org/dc/elements/1.1/"
   xmlns:cc="http://creativecommons.org/ns#"
   xmlns:rdf="http://www.w3.org/1999/02/22-rdf-syntax-ns#"
   xmlns:svg="http://www.w3.org/2000/svg"
   xmlns="http://www.w3.org/2000/svg"
   xmlns:xlink="http://www.w3.org/1999/xlink"
   xmlns:sodipodi="http://sodipodi.sourceforge.net/DTD/sodipodi-0.dtd"
   xmlns:inkscape="http://www.inkscape.org/namespaces/inkscape"
   width="256"
   height="256"
   viewBox="0 0 67.733331 67.733331"
   version="1.1"
   id="svg6491"
   inkscape:version="1.0.2 (e86c870879, 2021-01-15, custom)"
   sodipodi:docname="bomb-ship.svg"
   inkscape:export-filename="C:\Users\niko\Unity\neonrun\Assets\Sprites\bomb-ship.png"
   inkscape:export-xdpi="96"
   inkscape:export-ydpi="96">
  <defs
     id="defs6485">
    <linearGradient
       inkscape:collect="always"
       id="linearGradient7132">
      <stop
         style="stop-color:#ffffff;stop-opacity:0"
         offset="0"
         id="stop7128" />
      <stop
         style="stop-color:#ffffff;stop-opacity:0.79607843;"
         offset="0.34280905"
         id="stop7136" />
      <stop
         style="stop-color:#ffffff;stop-opacity:1"
         offset="1"
         id="stop7130" />
    </linearGradient>
    <linearGradient
       inkscape:collect="always"
       id="linearGradient7096">
      <stop
         style="stop-color:#fffed6;stop-opacity:1"
         offset="0"
         id="stop7092" />
      <stop
         style="stop-color:#ffed00;stop-opacity:0.98039216"
         offset="0.28160691"
         id="stop7114" />
      <stop
         style="stop-color:#ff9529;stop-opacity:0.96078432"
         offset="0.66456109"
         id="stop7112" />
      <stop
         style="stop-color:#ff2960;stop-opacity:0"
         offset="1"
         id="stop7094" />
    </linearGradient>
    <filter
       y="-0.25"
       height="1.5"
       inkscape:menu-tooltip="Darkens the edge with an inner blur and adds a flexible glow"
       inkscape:menu="Shadows and Glows"
       inkscape:label="Dark and Glow"
       style="color-interpolation-filters:sRGB"
       id="filter1450">
      <feGaussianBlur
         stdDeviation="0.82999999999999996"
         result="result6"
         id="feGaussianBlur1440" />
      <feComposite
         result="result8"
         in="SourceGraphic"
         operator="atop"
         in2="result6"
         id="feComposite1442" />
      <feComposite
         result="result9"
         operator="over"
         in2="SourceAlpha"
         in="result8"
         id="feComposite1444" />
      <feColorMatrix
         values="1 0 0 0 0 0 1 0 0 0 0 0 1 0 0 0 0 0 1 0 "
         result="result10"
         id="feColorMatrix1446" />
      <feBlend
         in="result10"
         mode="normal"
         in2="result6"
         id="feBlend1448" />
    </filter>
    <linearGradient
       inkscape:collect="always"
       xlink:href="#linearGradient7096"
       id="linearGradient7098"
       x1="33.867188"
       y1="3.6523438"
       x2="33.771816"
       y2="66.072357"
       gradientUnits="userSpaceOnUse"
       gradientTransform="matrix(0.93296992,0,0,0.93299682,2.2652847,3.7704169)" />
    <linearGradient
       inkscape:collect="always"
       xlink:href="#linearGradient7132"
       id="linearGradient7134"
       x1="34.61898"
       y1="48.201061"
       x2="34.470329"
       y2="-0.12579495"
       gradientUnits="userSpaceOnUse" />
    <filter
       inkscape:collect="always"
       style="color-interpolation-filters:sRGB"
       id="filter7358"
       x="-0.021716416"
       width="1.0434328"
       y="-0.030260358"
       height="1.0605207">
      <feGaussianBlur
         inkscape:collect="always"
         stdDeviation="0.57911891"
         id="feGaussianBlur7360" />
    </filter>
  </defs>
  <sodipodi:namedview
     id="base"
     pagecolor="#ffffff"
     bordercolor="#666666"
     borderopacity="1.0"
     inkscape:pageopacity="0.0"
     inkscape:pageshadow="2"
     inkscape:zoom="2.5908834"
     inkscape:cx="102.6139"
     inkscape:cy="57.954052"
     inkscape:document-units="px"
     inkscape:current-layer="layer1"
     inkscape:document-rotation="0"
     showgrid="false"
     units="px"
     inkscape:pagecheckerboard="true"
     borderlayer="true"
     inkscape:window-width="1522"
     inkscape:window-height="1368"
     inkscape:window-x="-7"
     inkscape:window-y="0"
     inkscape:window-maximized="0" />
  <metadata
     id="metadata6488">
    <rdf:RDF>
      <cc:Work
         rdf:about="">
        <dc:format>image/svg+xml</dc:format>
        <dc:type
           rdf:resource="http://purl.org/dc/dcmitype/StillImage" />
        <dc:title></dc:title>
      </cc:Work>
    </rdf:RDF>
  </metadata>
  <g
     inkscape:label="Taso 1"
     inkscape:groupmode="layer"
     id="layer1">
    <path
       style="color:#000000;font-style:normal;font-variant:normal;font-weight:normal;font-stretch:normal;font-size:medium;line-height:normal;font-family:sans-serif;font-variant-ligatures:normal;font-variant-position:normal;font-variant-caps:normal;font-variant-numeric:normal;font-variant-alternates:normal;font-variant-east-asian:normal;font-feature-settings:normal;font-variation-settings:normal;text-indent:0;text-align:start;text-decoration:none;text-decoration-line:none;text-decoration-style:solid;text-decoration-color:#000000;letter-spacing:normal;word-spacing:normal;text-transform:none;writing-mode:lr-tb;direction:ltr;text-orientation:mixed;dominant-baseline:auto;baseline-shift:baseline;text-anchor:start;white-space:normal;shape-padding:0;shape-margin:0;inline-size:0;clip-rule:nonzero;display:inline;overflow:visible;visibility:visible;opacity:1;isolation:auto;mix-blend-mode:normal;color-interpolation:sRGB;color-interpolation-filters:linearRGB;solid-color:#000000;solid-opacity:1;vector-effect:none;fill:url(#linearGradient7098);fill-opacity:1;fill-rule:nonzero;stroke:none;stroke-width:1;stroke-linecap:round;stroke-linejoin:round;stroke-miterlimit:4;stroke-dasharray:none;stroke-dashoffset:0;stroke-opacity:1;color-rendering:auto;image-rendering:auto;shape-rendering:auto;text-rendering:auto;enable-background:accumulate;stop-color:#000000;stop-opacity:1"
       d="M 33.851419,4.8710616 A 0.98749343,0.9875219 0 0 0 33.20818,5.1188889 l -8.219975,7.2762831 a 0.98749343,0.9875219 0 0 0 -0.327998,0.64508 l -2.223092,22.823799 -7.67878,5.020325 -0.324353,-19.478131 A 0.98749343,0.9875219 0 0 0 13.413547,20.43498 l -2.379803,0.07835 a 0.98749343,0.9875219 0 0 0 -0.942081,0.825491 L 5.9771201,46.289197 4.4045556,47.349752 a 0.98749343,0.9875219 0 0 0 -0.4336853,0.807261 l -0.202265,18.663581 a 0.98739463,0.9874231 0 0 0 0.9767029,0.996775 0.98739463,0.9874231 0 0 0 0.9985694,-0.976731 L 5.9388538,48.696402 7.4348856,47.68687 a 0.98749343,0.9875219 0 0 0 0.422752,-0.657836 l 4.0507664,-24.567701 0.566705,-0.01822 0.33711,20.263525 a 0.98749343,0.9875219 0 0 0 1.52883,0.809083 l 9.572053,-6.257639 a 0.98749343,0.9875219 0 0 0 0.442796,-0.730726 l 2.232204,-22.909445 7.27425,-6.439866 7.274249,6.439866 2.232205,22.909445 a 0.98749343,0.9875219 0 0 0 0.440973,0.730726 l 9.573876,6.257639 a 0.98749343,0.9875219 0 0 0 1.527008,-0.809083 l 0.337108,-20.263525 0.566707,0.01822 4.052588,24.567701 a 0.98749343,0.9875219 0 0 0 0.42093,0.657836 l 1.496032,1.009532 0.196798,18.144236 a 0.98739463,0.9874231 0 0 0 0.996748,0.976731 0.98739463,0.9874231 0 0 0 0.976702,-0.996775 L 63.753833,48.157013 A 0.98749343,0.9875219 0 0 0 63.318326,47.349752 L 61.745761,46.289197 57.631218,21.338821 a 0.98749343,0.9875219 0 0 0 -0.942081,-0.825484 l -2.379802,-0.07835 a 0.98749343,0.9875219 0 0 0 -1.020436,0.971265 l -0.32253,19.478127 -7.67878,-5.020325 -2.223092,-22.823799 a 0.98749343,0.9875219 0 0 0 -0.327998,-0.64508 L 34.516524,5.1188889 A 0.98749343,0.9875219 0 0 0 33.851419,4.8710616 Z"
       id="use1432" />
    <path
       style="fill:none;fill-opacity:1;stroke:url(#linearGradient7134);stroke-width:2.64583;stroke-linecap:butt;stroke-linejoin:miter;stroke-miterlimit:4;stroke-dasharray:none;stroke-opacity:1;filter:url(#filter7358)"
       d="M 1.793694,47.949639 8.5804171,19.550861 33.883133,3.077077 59.08773,19.989768 65.795296,47.94964"
       id="path7118"
       sodipodi:nodetypes="ccccc" />
  </g>
</svg>
