<?xml version="1.0" encoding="UTF-8" standalone="no"?>
<svg
   xmlns:dc="http://purl.org/dc/elements/1.1/"
   xmlns:cc="http://creativecommons.org/ns#"
   xmlns:rdf="http://www.w3.org/1999/02/22-rdf-syntax-ns#"
   xmlns:svg="http://www.w3.org/2000/svg"
   xmlns="http://www.w3.org/2000/svg"
   xmlns:xlink="http://www.w3.org/1999/xlink"
   xmlns:sodipodi="http://sodipodi.sourceforge.net/DTD/sodipodi-0.dtd"
   xmlns:inkscape="http://www.inkscape.org/namespaces/inkscape"
   width="256"
   height="256"
   viewBox="0 0 67.733332 67.733335"
   version="1.1"
   id="svg858"
   inkscape:version="1.0.2 (e86c870879, 2021-01-15, custom)"
   sodipodi:docname="icon.svg"
   inkscape:export-filename="C:\Users\niko\Unity\neonrun\Assets\Sprites\icon.png"
   inkscape:export-xdpi="96"
   inkscape:export-ydpi="96">
  <defs
     id="defs852">
    <filter
       y="-0.013007961"
       height="1.0260159"
       inkscape:menu-tooltip="Darkens the edge with an inner blur and adds a flexible glow"
       inkscape:menu="Shadows and Glows"
       inkscape:label="Dark and Glow"
       style="color-interpolation-filters:sRGB;"
       id="filter1450"
       x="-0.012572625"
       width="1.0251452">
      <feGaussianBlur
         stdDeviation="0.36529425"
         result="result6"
         id="feGaussianBlur1440" />
      <feComposite
         result="result8"
         in="SourceGraphic"
         operator="atop"
         in2="result6"
         id="feComposite1442" />
      <feComposite
         result="result9"
         operator="over"
         in2="SourceAlpha"
         in="result8"
         id="feComposite1444" />
      <feColorMatrix
         values="1 0 0 0 0 0 1 0 0 0 0 0 1 0 0 0 0 0 1 0 "
         result="result10"
         id="feColorMatrix1446" />
      <feBlend
         in="result10"
         mode="normal"
         in2="result6"
         id="feBlend1448" />
    </filter>
    <filter
       inkscape:collect="always"
       style="color-interpolation-filters:sRGB"
       id="filter7497"
       x="-0.018709231"
       width="1.0374185"
       y="-0.019284924"
       height="1.0385698">
      <feGaussianBlur
         inkscape:collect="always"
         stdDeviation="0.5117347"
         id="feGaussianBlur7499" />
    </filter>
  </defs>
  <sodipodi:namedview
     id="base"
     pagecolor="#ffffff"
     bordercolor="#666666"
     borderopacity="1.0"
     inkscape:pageopacity="0.0"
     inkscape:pageshadow="2"
     inkscape:zoom="1.8320312"
     inkscape:cx="113.24971"
     inkscape:cy="157.36962"
     inkscape:document-units="mm"
     inkscape:current-layer="layer1"
     inkscape:document-rotation="0"
     showgrid="false"
     units="px"
     borderlayer="true"
     inkscape:window-width="1522"
     inkscape:window-height="1368"
     inkscape:window-x="0"
     inkscape:window-y="0"
     inkscape:window-maximized="0"
     inkscape:snap-global="false" />
  <metadata
     id="metadata855">
    <rdf:RDF>
      <cc:Work
         rdf:about="">
        <dc:format>image/svg+xml</dc:format>
        <dc:type
           rdf:resource="http://purl.org/dc/dcmitype/StillImage" />
        <dc:title></dc:title>
      </cc:Work>
    </rdf:RDF>
  </metadata>
  <g
     inkscape:label="Taso 1"
     inkscape:groupmode="layer"
     id="layer1">
    <rect
       style="fill:#8df5ff;stroke:none;stroke-width:5.29167;stop-color:#000000;fill-opacity:1"
       id="rect7366"
       width="74.139771"
       height="74.24189"
       x="-2.1445389"
       y="-2.3487806" />
    <path
       sodipodi:type="star"
       style="fill:#fff9b9;fill-opacity:1;stroke:#ffef9e;stroke-width:1.46899;stroke-linejoin:bevel;stroke-miterlimit:4;stroke-dasharray:none;stroke-opacity:1;stop-color:#000000"
       id="path7368"
       sodipodi:sides="14"
       sodipodi:cx="38.221256"
       sodipodi:cy="33.439785"
       sodipodi:r1="52.340324"
       sodipodi:r2="14.613315"
       sodipodi:arg1="1.1380031"
       sodipodi:arg2="1.3624026"
       inkscape:flatsided="false"
       inkscape:rounded="0"
       inkscape:randomized="0"
       d="M 60.173213,80.954216 41.244585,47.736933 37.383547,85.773405 34.741881,47.632844 14.7598,80.227279 28.92831,44.717645 -3.2171186,65.414316 24.955321,39.568727 -12.986659,44.268405 23.609813,33.205898 -12.613843,20.977753 25.158281,26.889393 -2.1725126,0.15535925 29.294031,21.870273 16.269299,-14.074646 35.197927,19.142637 39.058965,-18.893835 41.700631,19.246726 61.682713,-13.347709 47.514202,22.161925 79.659631,1.4652538 51.487191,27.310843 89.429171,22.611165 52.832699,33.673672 89.056356,45.901817 51.284232,39.990177 78.615025,66.724211 47.148482,45.009297 Z"
       transform="matrix(0.90056168,0,0,0.90056587,3.8006576,3.325056)" />
    <path
       id="path1465"
       style="fill:#005f2c;fill-opacity:1;stroke:none;stroke-width:2.11667;stroke-linecap:round;stroke-linejoin:round;stroke-miterlimit:4;stroke-dasharray:none;stroke-opacity:1"
       d="M 43.605174,12.943417 30.4263,27.049855 21.034425,26.326548 31.482322,12.227737 29.888881,11.080921 14.42011,25.579298 l -1.909179,-0.11809 -6.4913158,8.188615 1.1738788,0.203527 3.436898,-1.560679 8.992582,3.863837 -4.832588,4.677725 4.435396,2.156929 4.482573,-1.737268 4.797211,2.521804 3.662345,4.001247 -0.524121,4.789578 3.217737,3.744301 3.268847,-5.883506 6.032917,7.722127 -0.622293,3.730983 0.49751,1.085259 6.227546,-8.392005 -0.603884,-1.8197 L 59.667924,34.043147 58.1534,32.793452 47.244063,46.536451 44.136092,37.621293 54.351793,21.229992 52.557872,12.420525 Z"
       sodipodi:nodetypes="ccccccccccccccccccccccccccccccc" />
    <g
       id="g1460"
       style="mix-blend-mode:normal;stroke-width:1.2997;filter:url(#filter1450)"
       transform="matrix(0.60910246,0.46967082,-0.46845269,0.61068632,34.026035,-6.2336392)">
      <path
         id="path1421"
         style="fill:none;stroke:#29ff89;stroke-width:2.75103;stroke-linecap:round;stroke-linejoin:round;stroke-miterlimit:4;stroke-dasharray:none;stroke-opacity:1"
         d="m 33.866666,4.332552 -8.809797,7.799007 -2.432636,24.969873 -10.260646,6.707263 -0.378842,-22.795592 -2.551162,0.08425 -4.4845307,27.190135 -2.0629231,1.393196 -0.2165242,13.575397 1.3720091,-0.721918 2.3104533,-4.332552 12.3341306,-3.15898 -1.283642,8.647018 6.282137,-1.299657 3.249581,-5.343872 6.932392,-1.227315"
         sodipodi:nodetypes="cccccccccccccccc" />
      <use
         x="0"
         y="0"
         xlink:href="#path1421"
         id="use1432"
         transform="matrix(-1,0,0,1,67.733334,0)"
         width="100%"
         height="100%"
         style="stroke:#00c056;stroke-width:2.75103;stroke-linecap:round;stroke-linejoin:round;stroke-miterlimit:4;stroke-dasharray:none;stroke-opacity:1" />
      <path
         id="rect1452"
         style="fill:none;fill-opacity:0.711911;stroke:#00ff72;stroke-width:2.75103;stroke-linecap:round;stroke-linejoin:round;stroke-miterlimit:4;stroke-dasharray:none;stroke-opacity:1"
         d="m 31.861717,30.942629 2.604083,-1.633934 2.604083,1.633934 1.058333,10.620573 h -7.324832 z"
         sodipodi:nodetypes="cccccc" />
    </g>
    <path
       id="path7370"
       style="fill:none;fill-opacity:1;stroke:#e9ffde;stroke-width:2.35038;stroke-linecap:round;stroke-linejoin:round;stroke-miterlimit:4;stroke-dasharray:none;stroke-opacity:1;filter:url(#filter7497)"
       sodipodi:type="inkscape:offset"
       inkscape:radius="3.0465591"
       inkscape:original="M 31.134766 6.5898438 L 13.958984 22.689453 L 11.837891 22.558594 L 4.6308594 31.650391 L 5.9335938 31.876953 L 9.75 30.144531 L 19.736328 34.435547 L 14.369141 39.628906 L 19.294922 42.023438 L 24.271484 40.095703 L 29.599609 42.894531 L 33.666016 47.337891 L 33.083984 52.65625 L 36.65625 56.814453 L 40.287109 50.28125 L 46.986328 58.855469 L 46.294922 62.998047 L 46.847656 64.203125 L 53.761719 54.884766 L 53.091797 52.865234 L 64.203125 32.087891 L 62.521484 30.701172 L 50.40625 45.960938 L 46.955078 36.060547 L 58.298828 17.859375 L 56.306641 8.078125 L 46.365234 8.6582031 L 31.732422 24.322266 L 21.302734 23.519531 L 32.904297 7.8632812 L 31.134766 6.5898438 z "
       d="M 31.126953,3.5429688 A 3.0468638,3.0468638 0 0 0 29.050781,4.3671875 L 12.833984,19.568359 12.025391,19.517578 a 3.0468638,3.0468638 0 0 0 -2.5742191,1.148438 l -7.2070313,9.091796 a 3.0468638,3.0468638 0 0 0 1.8652344,4.894532 l 1.3027344,0.226562 a 3.0468638,3.0468638 0 0 0 1.78125,-0.228515 L 9.7832031,33.474609 14.328125,35.427734 12.25,37.439453 a 3.0468638,3.0468638 0 0 0 0.787109,4.929688 l 4.925782,2.394531 a 3.0468638,3.0468638 0 0 0 2.43164,0.101562 l 3.685547,-1.427734 3.63086,1.90625 2.777343,3.033203 -0.433593,3.947266 a 3.0468638,3.0468638 0 0 0 0.71875,2.316406 l 3.572265,4.158203 a 3.0468638,3.0468638 0 0 0 4.972656,-0.503906 l 1.398438,-2.515625 3.044922,3.896484 -0.472657,2.820313 a 3.0468638,3.0468638 0 0 0 0.236329,1.771484 l 0.552734,1.205078 a 3.0468638,3.0468638 0 0 0 5.216797,0.544922 l 6.914062,-9.318359 a 3.0468638,3.0468638 0 0 0 0.445313,-2.773438 L 56.394531,53.148438 66.890625,33.525391 a 3.0468638,3.0468638 0 0 0 -0.75,-3.78711 l -1.681641,-1.386719 a 3.0468638,3.0468638 0 0 0 -4.324218,0.455079 L 51.460938,39.730469 50.3125,36.433594 60.884766,19.470703 a 3.0468638,3.0468638 0 0 0 0.398437,-2.21875 L 59.291016,7.4707031 A 3.0468638,3.0468638 0 0 0 56.128906,5.0371094 L 46.1875,5.6171875 A 3.0468638,3.0468638 0 0 0 44.138672,6.578125 L 30.505859,21.171875 27.03125,20.904297 35.351562,9.6777344 A 3.0468638,3.0468638 0 0 0 34.683594,5.390625 L 32.914062,4.1171875 A 3.0468638,3.0468638 0 0 0 31.126953,3.5429688 Z"
       transform="matrix(0.90056168,0,0,0.90056587,1.8497606,5.1459017)" />
  </g>
</svg>
